<svg width="68" height="90" viewBox="0 0 68 90" fill="none" xmlns="http://www.w3.org/2000/svg">
<g filter="url(#filter0_d_8_2076)">
<path d="M47.6667 21.3125C47.6667 12.8496 39.3167 6 29 6C18.6833 6 10.3333 12.8496 10.3333 21.3125V44.0762C7.05 47.4531 5 51.6641 5 56.3125C5 67.1816 15.75 76 29 76C42.25 76 53 67.1816 53 56.3125C53 51.6641 50.95 47.4395 47.6667 44.0762V21.3125ZM29 67.25C21.65 67.25 15.6667 62.3418 15.6667 56.3125C15.6667 52.8262 17.7 49.627 21 47.5898V21.3125C21 17.6895 24.5833 14.75 29 14.75C33.4167 14.75 37 17.6895 37 21.3125V47.5898C40.3 49.6133 42.3333 52.8262 42.3333 56.3125C42.3333 62.3418 36.35 67.25 29 67.25ZM31.6667 50.1465V21.3125C31.6667 20.1094 30.4667 19.125 29 19.125C27.5333 19.125 26.3333 20.1094 26.3333 21.3125V50.1465C23.2333 51.0488 21 53.4551 21 56.3125C21 59.9355 24.5833 62.875 29 62.875C33.4167 62.875 37 59.9355 37 56.3125C37 53.4551 34.7667 51.0488 31.6667 50.1465Z" fill="#2D9CDB"/>
</g>
<defs>
<filter id="filter0_d_8_2076" x="0" y="0" width="68" height="90" filterUnits="userSpaceOnUse" color-interpolation-filters="sRGB">
<feFlood flood-opacity="0" result="BackgroundImageFix"/>
<feColorMatrix in="SourceAlpha" type="matrix" values="0 0 0 0 0 0 0 0 0 0 0 0 0 0 0 0 0 0 127 0" result="hardAlpha"/>
<feOffset dx="5" dy="4"/>
<feGaussianBlur stdDeviation="5"/>
<feComposite in2="hardAlpha" operator="out"/>
<feColorMatrix type="matrix" values="0 0 0 0 0 0 0 0 0 0 0 0 0 0 0 0 0 0 0.25 0"/>
<feBlend mode="normal" in2="BackgroundImageFix" result="effect1_dropShadow_8_2076"/>
<feBlend mode="normal" in="SourceGraphic" in2="effect1_dropShadow_8_2076" result="shape"/>
</filter>
</defs>
</svg>
