<svg width="60" height="70" viewBox="0 0 60 70" fill="none" xmlns="http://www.w3.org/2000/svg">
<path d="M13.3436 29.4024L0.149998 50.7152C-0.234997 51.3987 0.162498 52.2874 0.891237 52.3749L26.9234 55.3923L13.3436 29.4024ZM0.926237 43.1246L10.3373 26.3973L0.757489 20.1111C0.423744 19.8923 0 20.1548 0 20.58V42.8389C0 43.3899 0.66124 43.5949 0.926237 43.1246ZM2.28122 57.9133L26.5809 69.8979C27.2434 70.2329 27.9996 69.7024 27.9996 68.9054V59.9272L2.55621 56.8784C1.99997 56.81 1.77747 57.6426 2.28122 57.9133ZM12.4336 22.6704L22.4247 3.12808C22.9672 2.16286 21.9759 1.04315 21.0772 1.60506L2.22622 15.0867C1.91747 15.3082 1.92747 15.8058 2.24247 16.0137L12.4336 22.6704ZM29.9996 24.0622H43.6506L31.7033 1.04178C31.312 0.347261 30.6558 0 29.9996 0C29.3433 0 28.6871 0.347261 28.2958 1.04178L16.3485 24.0622H29.9996ZM59.2416 20.1111L49.6618 26.3987L59.0729 43.126C59.3366 43.5963 59.9991 43.3912 59.9991 42.8389V20.58C59.9991 20.1548 59.5754 19.8923 59.2416 20.1111ZM47.5656 22.6704L57.7567 16.0123C58.0729 15.8045 58.0817 15.3068 57.7729 15.0854L38.9219 1.60506C38.0232 1.04315 37.032 2.16286 37.5745 3.12808L47.5656 22.6704ZM57.4429 56.8784L31.9995 59.9258V68.904C31.9995 69.7024 32.7558 70.2315 33.4183 69.8966L57.7179 57.9119C58.2217 57.6426 57.9992 56.81 57.4429 56.8784ZM46.6556 29.4024L33.077 55.3923L59.1091 52.3749C59.8379 52.286 60.2354 51.3987 59.8504 50.7152L46.6556 29.4024ZM29.9996 28.4371H17.446L29.9996 52.4651L42.5531 28.4371H29.9996Z" fill="#2D9CDB"/>
</svg>
